<?xml version="1.0" encoding="UTF-8" standalone="no"?><!DOCTYPE svg PUBLIC "-//W3C//DTD SVG 1.1//EN" "http://www.w3.org/Graphics/SVG/1.1/DTD/svg11.dtd"><svg width="100%" height="100%" viewBox="0 0 300 300" version="1.1" xmlns="http://www.w3.org/2000/svg" xmlns:xlink="http://www.w3.org/1999/xlink" xml:space="preserve" xmlns:serif="http://www.serif.com/" style="fill-rule:evenodd;clip-rule:evenodd;stroke-linejoin:round;stroke-miterlimit:2;"><rect id="Artboard1" x="0" y="0" width="300" height="300" style="fill:none;"/><path d="M78.669,169.88l156.289,-104.447l-134.397,136.132l16.55,17.482l-48.627,26.45l10.185,-75.617Z" style="fill:#271e37;"/><path d="M74.959,166.537c-20.472,-19.097 -46.069,-44.1 -64.619,-62.735c-2.857,-2.87 -5.828,-7.759 -3.923,-11.637c1.731,-3.523 4.853,-4.72 12.407,-6.951c24.239,-7.158 83.059,-23.02 140.562,-39.097c70.199,-19.627 124.888,-37.214 132.651,-33.032c7.714,4.156 -6.369,40.286 -36.453,130.706c-3.899,11.721 -26.022,79.74 -40.901,123.352c-3.997,11.715 -6.474,18.801 -11.497,20.099c-3.404,0.879 -5.725,-0.595 -11.282,-5.785c-32.583,-30.426 -72.139,-69.426 -85.861,-83.32l128.915,-132.704l-159.999,101.104Z" style="fill:#271e37;"/></svg>